<svg width="1115" height="239" viewBox="0 0 1115 239" fill="none" xmlns="http://www.w3.org/2000/svg">
<path d="M349.68 35.6187V139.299C349.68 150.659 352.64 159.379 358.56 165.459C364.48 171.379 372.8 174.339 383.52 174.339C394.4 174.339 402.8 171.379 408.72 165.459C414.64 159.379 417.6 150.659 417.6 139.299V35.6187H451.44V139.059C451.44 153.299 448.32 165.379 442.08 175.299C436 185.059 427.76 192.419 417.36 197.379C407.12 202.339 395.68 204.819 383.04 204.819C370.56 204.819 359.2 202.339 348.96 197.379C338.88 192.419 330.88 185.059 324.96 175.299C319.04 165.379 316.08 153.299 316.08 139.059V35.6187H349.68ZM634.384 35.6187L572.944 203.139H532.144L470.704 35.6187H506.704L552.784 168.819L598.624 35.6187H634.384ZM688.129 62.7387V104.739H744.529V131.379H688.129V175.779H751.729V203.139H654.529V35.3787H751.729V62.7387H688.129ZM925.543 203.139H891.943L815.863 88.1787V203.139H782.263V35.3787H815.863L891.943 150.579V35.3787H925.543V203.139ZM1017.31 35.6187C1034.91 35.6187 1050.35 39.0587 1063.63 45.9387C1077.07 52.8187 1087.39 62.6587 1094.59 75.4587C1101.95 88.0987 1105.63 102.819 1105.63 119.619C1105.63 136.419 1101.95 151.139 1094.59 163.779C1087.39 176.259 1077.07 185.939 1063.63 192.819C1050.35 199.699 1034.91 203.139 1017.31 203.139H958.748V35.6187H1017.31ZM1016.11 174.579C1033.71 174.579 1047.31 169.779 1056.91 160.179C1066.51 150.579 1071.31 137.059 1071.31 119.619C1071.31 102.179 1066.51 88.5787 1056.91 78.8187C1047.31 68.8987 1033.71 63.9387 1016.11 63.9387H992.348V174.579H1016.11Z" fill="white"/>
<path d="M349.68 35.6187V139.299C349.68 150.659 352.64 159.379 358.56 165.459C364.48 171.379 372.8 174.339 383.52 174.339C394.4 174.339 402.8 171.379 408.72 165.459C414.64 159.379 417.6 150.659 417.6 139.299V35.6187H451.44V139.059C451.44 153.299 448.32 165.379 442.08 175.299C436 185.059 427.76 192.419 417.36 197.379C407.12 202.339 395.68 204.819 383.04 204.819C370.56 204.819 359.2 202.339 348.96 197.379C338.88 192.419 330.88 185.059 324.96 175.299C319.04 165.379 316.08 153.299 316.08 139.059V35.6187H349.68ZM634.384 35.6187L572.944 203.139H532.144L470.704 35.6187H506.704L552.784 168.819L598.624 35.6187H634.384ZM688.129 62.7387V104.739H744.529V131.379H688.129V175.779H751.729V203.139H654.529V35.3787H751.729V62.7387H688.129ZM925.543 203.139H891.943L815.863 88.1787V203.139H782.263V35.3787H815.863L891.943 150.579V35.3787H925.543V203.139ZM1017.31 35.6187C1034.91 35.6187 1050.35 39.0587 1063.63 45.9387C1077.07 52.8187 1087.39 62.6587 1094.59 75.4587C1101.95 88.0987 1105.63 102.819 1105.63 119.619C1105.63 136.419 1101.95 151.139 1094.59 163.779C1087.39 176.259 1077.07 185.939 1063.63 192.819C1050.35 199.699 1034.91 203.139 1017.31 203.139H958.748V35.6187H1017.31ZM1016.11 174.579C1033.71 174.579 1047.31 169.779 1056.91 160.179C1066.51 150.579 1071.31 137.059 1071.31 119.619C1071.31 102.179 1066.51 88.5787 1056.91 78.8187C1047.31 68.8987 1033.71 63.9387 1016.11 63.9387H992.348V174.579H1016.11Z" fill="url(#paint0_linear_28_203)"/>
<path d="M171.728 78.6294C173.683 77.5008 176.126 78.9114 176.126 81.1685V206.294C176.126 207.342 175.568 208.31 174.661 208.833L130.474 234.344C128.52 235.473 126.077 234.062 126.077 231.805V106.682C126.077 105.635 126.635 104.667 127.542 104.143L171.728 78.6294ZM235.102 42.0356C237.057 40.9075 239.499 42.318 239.5 44.5747V165.744C239.499 169.243 237.633 172.477 234.602 174.227L191.82 198.926C189.865 200.054 187.422 198.644 187.422 196.387V71.2603C187.422 70.2128 187.981 69.245 188.888 68.7212L235.102 42.0356Z" fill="url(#paint1_linear_28_203)" stroke="white"/>
<path d="M63.873 81.0928C63.8734 78.8345 66.3199 77.4241 68.2744 78.5557L113.318 104.634C114.224 105.158 114.781 106.125 114.781 107.171V232.301C114.781 234.558 112.337 235.968 110.383 234.84L65.3389 208.834C64.4319 208.31 63.8731 207.342 63.873 206.295V81.0928ZM0.5 44.4033C0.50023 42.145 2.94684 40.7346 4.90137 41.8662L51.1143 68.6211C52.0197 69.1453 52.5771 70.113 52.5771 71.1592V196.387C52.5771 198.644 50.1343 200.055 48.1797 198.927L5.39844 174.227C2.36756 172.477 0.5 169.243 0.5 165.743V44.4033Z" fill="url(#paint2_linear_28_203)" stroke="white"/>
<path d="M118.553 37.626C119.46 37.102 120.578 37.1017 121.485 37.626L166.403 63.583C168.357 64.712 168.356 67.5318 166.402 68.6602L121.471 94.6045C120.563 95.1288 119.444 95.1287 118.536 94.6035L73.6621 68.623C71.7103 67.493 71.712 64.6747 73.665 63.5469L118.553 37.626ZM181.168 1.46875C182.075 0.945263 183.192 0.944896 184.099 1.46777L229.069 27.3945C231.025 28.5222 231.026 31.3447 229.071 32.4736L183.558 58.7539C182.65 59.2778 181.532 59.2781 180.625 58.7539L135.707 32.7979C133.753 31.6689 133.753 28.8481 135.707 27.7197L181.168 1.46875ZM55.9043 1.42383C56.8117 0.900123 57.9298 0.900611 58.8369 1.4248L104.334 27.7148C106.288 28.8438 106.287 31.6646 104.333 32.793L59.4619 58.7041C58.5537 59.2286 57.434 59.2286 56.5264 58.7031L11.0684 32.3848C9.11653 31.2547 9.11824 28.4364 11.0713 27.3086L55.9043 1.42383Z" fill="white" stroke="white"/>
<defs>
<linearGradient id="paint0_linear_28_203" x1="392.049" y1="180.966" x2="392.023" y2="95.991" gradientUnits="userSpaceOnUse">
<stop stop-color="white" stop-opacity="0.9"/>
<stop offset="1" stop-color="white"/>
</linearGradient>
<linearGradient id="paint1_linear_28_203" x1="169.745" y1="202.407" x2="172.748" y2="69.8562" gradientUnits="userSpaceOnUse">
<stop stop-color="white" stop-opacity="0.95"/>
<stop offset="1" stop-color="white"/>
</linearGradient>
<linearGradient id="paint2_linear_28_203" x1="44.5" y1="202.782" x2="47.5" y2="69.7822" gradientUnits="userSpaceOnUse">
<stop stop-color="white" stop-opacity="0.95"/>
<stop offset="1" stop-color="white"/>
</linearGradient>
</defs>
</svg>
