<svg width="280" height="278" viewBox="0 0 280 278" fill="none" xmlns="http://www.w3.org/2000/svg">
<path d="M132.367 121.449C133.603 122.164 134.363 123.483 134.363 124.911V270.752C134.363 273.832 131.03 275.756 128.363 274.217L75.8633 243.906C74.6257 243.191 73.8633 241.871 73.8633 240.442V94.5159C73.8633 91.4346 77.2008 89.5104 79.8674 91.0542L132.367 121.449Z" fill="white"/>
<path d="M205.863 240.442C205.863 241.871 205.101 243.191 203.863 243.906L152.363 273.639C149.697 275.179 146.363 273.254 146.363 270.175V124.341C146.363 122.912 147.126 121.591 148.363 120.877L199.863 91.1394C202.53 89.5996 205.863 91.5241 205.863 94.6034V240.442Z" fill="white"/>
<path d="M59.8674 79.4754C61.1027 80.1905 61.8633 81.5097 61.8633 82.9371V228.894C61.8633 231.973 58.53 233.898 55.8633 232.358L6.00012 203.571C2.28724 201.427 0 197.465 0 193.178V51.7532C0 48.6719 3.33747 46.7476 6.00414 48.2915L59.8674 79.4754Z" fill="white"/>
<path d="M279.727 193.178C279.727 197.465 277.439 201.427 273.726 203.571L223.863 232.358C221.197 233.898 217.863 231.973 217.863 228.894V83.0553C217.863 81.6264 218.626 80.3059 219.863 79.5914L273.726 48.4891C276.393 46.9493 279.727 48.8738 279.727 51.9531V193.178Z" fill="white"/>
<path d="M194.24 73.6027C196.905 75.143 196.904 78.9907 194.239 80.53L141.869 110.769C140.63 111.485 139.103 111.484 137.865 110.767L85.563 80.4866C82.9002 78.945 82.9024 75.0997 85.5669 73.561L137.885 43.3489C139.123 42.6339 140.648 42.6341 141.886 43.3495L194.24 73.6027Z" fill="url(#paint0_linear_28_205)"/>
<path d="M267.278 31.4241C269.947 32.9625 269.948 36.8132 267.28 38.3534L214.233 68.9843C212.995 69.6992 211.47 69.6989 210.232 68.9836L157.878 38.7311C155.213 37.1909 155.214 33.3432 157.879 31.8038L210.865 1.20689C212.101 0.492637 213.625 0.492097 214.863 1.20548L267.278 31.4241Z" fill="url(#paint1_linear_28_205)"/>
<path d="M121.896 31.7982C124.561 33.3384 124.561 37.1861 121.895 38.7255L69.5957 68.9264C68.3565 69.642 66.8295 69.6411 65.5912 68.9242L12.6086 38.2497C9.94565 36.708 9.94795 32.8624 12.6128 31.3239L64.8663 1.1552C66.1044 0.440402 67.6298 0.440683 68.8676 1.15594L121.896 31.7982Z" fill="url(#paint2_linear_28_205)"/>
<defs>
<linearGradient id="paint0_linear_28_205" x1="7" y1="56" x2="313" y2="81.5" gradientUnits="userSpaceOnUse">
<stop stop-color="#91FFFD"/>
<stop offset="1" stop-color="#B793FF"/>
</linearGradient>
<linearGradient id="paint1_linear_28_205" x1="7" y1="56" x2="313" y2="81.5" gradientUnits="userSpaceOnUse">
<stop stop-color="#91FFFD"/>
<stop offset="1" stop-color="#B793FF"/>
</linearGradient>
<linearGradient id="paint2_linear_28_205" x1="7" y1="56" x2="313" y2="81.5" gradientUnits="userSpaceOnUse">
<stop stop-color="#91FFFD"/>
<stop offset="1" stop-color="#B793FF"/>
</linearGradient>
</defs>
</svg>
